<svg width="689" height="640" viewBox="0 0 689 640" fill="none" xmlns="http://www.w3.org/2000/svg">
<g clip-path="url(#clip0_370_11)">
<rect width="688.93" height="639.8" fill="#979797"/>
<path fill-rule="evenodd" clip-rule="evenodd" d="M605.839 275.238C618.226 278.591 653.315 318.125 661.145 329.888C674.389 349.771 691.718 377.074 691.718 409.557V441.159C691.718 465.013 684.333 494.174 676.138 510.039C671.14 519.712 667.607 528.058 662.358 537.843C658.645 544.752 655.438 551.4 653.296 558.351C650.539 567.248 648.725 579.111 652.278 588.096C655.674 596.696 663.121 598.119 668.288 605.947C669.165 608.147 665.954 612.563 662.725 611.583C652.633 611.583 639.992 602.515 632.782 592.39C624.37 580.569 625.414 561.142 630.698 548.16C634.344 539.238 639.91 531.359 643.8 524.719C651.103 512.221 657.222 501.167 662.936 486.518C671.237 465.231 677.852 411.33 670.048 385.205C661.837 357.686 645.967 329.755 628.432 312.205C618.788 302.564 572.533 267.672 557.651 267.393L559.009 275.238C557.698 277.211 555.391 280.883 552.313 280.883H551.202C548.193 280.883 548.126 280.346 545.626 279.755C546.558 283.846 551.202 293.513 551.202 294.437C551.202 294.648 530.621 317.193 527.318 322.191C523.21 328.425 521.926 331.701 517.293 338.006C514.329 342.029 505.469 348.015 505.469 353.119C505.469 370.94 524.187 383.711 542.263 383.606C555.118 383.531 562.419 383.646 569.342 390.057C575.338 395.599 582.418 400.77 582.418 411.814C582.418 412.601 577.905 416.991 576.852 418.581C553.429 418.581 523.302 442.855 512.62 457.428C495.622 480.626 488.185 501.822 482.209 529.72C435.342 504.621 399.281 445.769 388.852 394.321C383.45 367.646 383.565 337.912 389.011 311.326C394.062 286.718 403.796 269.476 417.824 248.617C424.487 238.619 442.65 219.017 451.737 211.832C458.842 206.204 464.568 201.642 472.243 196.464C475.512 194.257 493.559 183.751 494.32 182.701C478.004 183.056 448.991 197.154 436.314 202.995C366.882 234.967 330.758 322.045 349.285 396.171C364.587 457.437 397.421 500.849 450.828 533.703C457.923 538.075 464.75 541.451 472.401 545.732C486.183 553.439 481.55 551.942 488.297 564.629C513.997 612.892 562.822 639.801 618.111 639.801C668.753 639.801 721.069 618.127 770.441 606.599C850.592 587.899 954.691 575.56 1033.4 604.434C1026.6 594.146 1016.94 590.433 1001.11 584.022C965.788 569.723 930.151 565.311 892.461 565.311C853.918 565.311 809.635 572.84 772.677 585.172C755.82 590.786 703.985 611.209 703.985 569.827V564.184C703.985 551.282 723.03 509.375 728.76 500.095C745.99 472.195 758.896 429.952 763.993 396.903C766.055 383.506 759.397 365.408 756.4 356.51C749.202 335.083 730.753 311.375 730.753 285.401V283.149C730.753 266.422 737.774 255.253 747.878 248.56C757.499 242.194 780.399 250.413 793.215 250.413H804.362C824.273 250.413 833.354 226.611 833.354 206.393V201.877C829.101 201.795 804.887 194.398 801.187 192.675C788.775 186.917 784.481 185.437 777.625 173.634C772.238 164.377 767.698 157.048 761.32 148.365C758.725 144.81 740.797 127.311 740.797 126.258C740.797 113.892 752.293 100.589 754.162 92.3999C747.339 94.0075 730.384 104.817 729.641 104.817C723.627 104.817 721.831 95.8686 721.831 89.0146C709.228 90.0748 653.257 150.309 644.897 162.388C625.471 190.442 605.839 227.788 605.839 275.238Z" fill="white" stroke="white" stroke-width="0.288" stroke-miterlimit="22.9256"/>
<path fill-rule="evenodd" clip-rule="evenodd" d="M556.04 141.615L556.965 161.438L559.009 161.244C562.207 15.5576 743.424 7.85192 823.618 89.8416C848.669 115.449 875.732 169.491 875.732 219.943V268.479C875.732 289.929 869.41 324.99 865.429 344.95C863.779 353.252 860.004 372.397 857.202 380.636C855.35 386.078 848.205 410.937 847.856 415.203C854.401 407.572 877.639 337.944 882.296 322.514C891.164 293.104 901.388 250.555 901.388 213.168V192.85C901.388 70.9062 804.565 -13.7658 684.03 1.85583C611.754 11.2238 552.413 63.8824 556.04 141.615Z" fill="white" stroke="white" stroke-width="0.288" stroke-miterlimit="22.9256"/>
</g>
<defs>
<clipPath id="clip0_370_11">
<rect width="688.93" height="639.8" fill="white"/>
</clipPath>
</defs>
</svg>
