<svg width="689" height="640" viewBox="0 0 689 640" fill="none" xmlns="http://www.w3.org/2000/svg">
<g clip-path="url(#clip0_370_12)">
<rect width="688.93" height="639.8" fill="#979797"/>
<path fill-rule="evenodd" clip-rule="evenodd" d="M-83.0857 275.238C-70.6987 278.591 -35.61 318.125 -27.7804 329.888C-14.5361 349.771 2.79309 377.074 2.79309 409.557V441.159C2.79309 465.013 -4.59158 494.174 -12.7866 510.039C-17.7848 519.712 -21.3179 528.058 -26.5673 537.843C-30.2795 544.752 -33.4869 551.4 -35.6286 558.351C-38.3862 567.248 -40.1998 579.111 -36.6472 588.096C-33.251 596.696 -25.804 598.119 -20.6372 605.947C-19.7596 608.147 -22.971 612.563 -26.1994 611.583C-36.2915 611.583 -48.9329 602.515 -56.1433 592.39C-64.5547 580.569 -63.511 561.142 -58.2267 548.16C-54.581 539.238 -49.0147 531.359 -45.125 524.719C-37.8222 512.221 -31.7025 501.167 -25.9887 486.518C-17.6876 465.231 -11.0727 411.33 -18.8772 385.205C-27.0876 357.686 -42.9582 329.755 -60.4932 312.205C-70.1371 302.564 -116.392 267.672 -131.274 267.393L-129.915 275.238C-131.227 277.211 -133.534 280.883 -136.612 280.883H-137.723C-140.732 280.883 -140.799 280.346 -143.299 279.755C-142.367 283.846 -137.723 293.513 -137.723 294.437C-137.723 294.648 -158.303 317.193 -161.607 322.191C-165.715 328.425 -166.998 331.701 -171.632 338.006C-174.596 342.029 -183.456 348.015 -183.456 353.119C-183.456 370.94 -164.738 383.711 -146.662 383.606C-133.807 383.531 -126.506 383.646 -119.583 390.057C-113.587 395.599 -106.507 400.77 -106.507 411.814C-106.507 412.601 -111.02 416.991 -112.073 418.581C-135.496 418.581 -165.622 442.855 -176.304 457.428C-193.303 480.626 -200.74 501.822 -206.716 529.72C-253.583 504.621 -289.644 445.769 -300.073 394.321C-305.475 367.646 -305.36 337.912 -299.914 311.326C-294.863 286.718 -285.129 269.476 -271.101 248.617C-264.438 238.619 -246.275 219.017 -237.188 211.832C-230.083 206.204 -224.357 201.642 -216.682 196.464C-213.413 194.257 -195.366 183.751 -194.604 182.701C-210.921 183.056 -239.934 197.154 -252.611 202.995C-322.043 234.967 -358.167 322.045 -339.64 396.171C-324.338 457.437 -291.504 500.849 -238.097 533.703C-231.002 538.075 -224.175 541.451 -216.524 545.732C-202.742 553.439 -207.375 551.942 -200.628 564.629C-174.928 612.892 -126.103 639.801 -70.8138 639.801C-20.1721 639.801 32.1438 618.127 81.5157 606.599C161.667 587.899 265.766 575.56 344.473 604.434C337.675 594.146 328.018 590.433 312.188 584.022C276.863 569.723 241.227 565.311 203.536 565.311C164.993 565.311 120.71 572.84 83.7522 585.172C66.8946 590.786 15.0601 611.209 15.0601 569.827V564.184C15.0601 551.282 34.1048 509.375 39.8356 500.095C57.0651 472.195 69.9715 429.952 75.0677 396.903C77.1301 383.506 70.4723 365.408 67.4748 356.51C60.2773 335.083 41.8282 311.375 41.8282 285.401V283.149C41.8282 266.422 48.849 255.253 58.9532 248.56C68.5737 242.194 91.474 250.413 104.29 250.413H115.437C135.348 250.413 144.429 226.611 144.429 206.393V201.877C140.176 201.795 115.962 194.398 112.263 192.675C99.8505 186.917 95.5565 185.437 88.7002 173.634C83.313 164.377 78.7726 157.048 72.3952 148.365C69.7997 144.81 51.8724 127.311 51.8724 126.258C51.8724 113.892 63.368 100.589 65.2374 92.3999C58.4143 94.0075 41.4587 104.817 40.7164 104.817C34.702 104.817 32.9063 95.8686 32.9063 89.0146C20.303 90.0748 -35.6683 150.309 -44.0278 162.388C-63.4542 190.442 -83.0857 227.788 -83.0857 275.238Z" fill="white" stroke="white" stroke-width="0.288" stroke-miterlimit="22.9256"/>
<path fill-rule="evenodd" clip-rule="evenodd" d="M-132.885 141.615L-131.96 161.438L-129.915 161.244C-126.718 15.5576 54.4988 7.85192 134.693 89.8416C159.744 115.449 186.807 169.491 186.807 219.943V268.479C186.807 289.929 180.485 324.99 176.504 344.95C174.854 353.252 171.079 372.397 168.277 380.636C166.425 386.078 159.28 410.937 158.931 415.203C165.476 407.572 188.714 337.944 193.371 322.514C202.239 293.104 212.463 250.555 212.463 213.168V192.85C212.463 70.9062 115.64 -13.7658 -4.89465 1.85583C-77.1709 11.2238 -136.512 63.8824 -132.885 141.615Z" fill="white" stroke="white" stroke-width="0.288" stroke-miterlimit="22.9256"/>
</g>
<defs>
<clipPath id="clip0_370_12">
<rect width="688.93" height="639.8" fill="white"/>
</clipPath>
</defs>
</svg>
